PathFileType	4	(X/Y/Z)	Kaydara																																																																																																																									
DataRate	CameraRate	NumFrames	NumMarkers	Units	OrigDataRate	OrigDataStartFrame	OrigNumFrames																																																																																																																					
30	30	4	41	mm	30	149	198																																																																																																																					
Frame#	Time	NABA_LFHD			NABA_RFHD			NABA_LBHD			NABA_RBHD			NABA_LFTShould			NABA_RFTShould			NABA_LRRShould			NABA_RRRShould			NABA_T10			NABA_STRN			NABA_TRUN			NABA_LSHO			NABA_LUPA			NABA_LELB			NABA_LFRM			NABA_LWRA			NABA_LWRB			NABA_LFIN			NABA_RSHO			NABA_RUPA			NABA_RELB			NABA_RFRM			NABA_RWRA			NABA_RWRB			NABA_RFIN			NABA_LFWT			NABA_RFWT			NABA_LBWT			NABA_RBWT			NABA_LTHI			NABA_LKNE			NABA_LSHN			NABA_LANK			NABA_LHEE			NABA_LTOE			NABA_RTHI			NABA_RKNE			NABA_RSHN			NABA_RANK			NABA_RHEE			NABA_RTOE		
		X1	Y1	Z1	X2	Y2	Z2	X3	Y3	Z3	X4	Y4	Z4	X5	Y5	Z5	X6	Y6	Z6	X7	Y7	Z7	X8	Y8	Z8	X9	Y9	Z9	X10	Y10	Z10	X11	Y11	Z11	X12	Y12	Z12	X13	Y13	Z13	X14	Y14	Z14	X15	Y15	Z15	X16	Y16	Z16	X17	Y17	Z17	X18	Y18	Z18	X19	Y19	Z19	X20	Y20	Z20	X21	Y21	Z21	X22	Y22	Z22	X23	Y23	Z23	X24	Y24	Z24	X25	Y25	Z25	X26	Y26	Z26	X27	Y27	Z27	X28	Y28	Z28	X29	Y29	Z29	X30	Y30	Z30	X31	Y31	Z31	X32	Y32	Z32	X33	Y33	Z33	X34	Y34	Z34	X35	Y35	Z35	X36	Y36	Z36	X37	Y37	Z37	X38	Y38	Z38	X39	Y39	Z39	X40	Y40	Z40	X41	Y41	Z41
																																																																																																																												
149	4.943	318.45169	1547.08191	1524.09775	149.33414	1529.17526	1552.25906	329.17439	1516.50253	1401.84708	112.99736	1512.43179	1458.27896	309.15648	1275.4924	1513.65646	172.60134	1272.34268	1517.56699	304.17149	1314.09897	1386.81564	153.65866	1312.91763	1399.7934	233.67657	1143.11363	1339.54987	242.94994	1225.49934	1568.57254	244.31829	1133.72093	1625.8374	405.44708	1285.9137	1450.86853	441.74828	1057.89619	1386.6777	456.53038	972.23518	1400.04395	443.16486	905.44014	1369.09653	409.32446	745.32043	1429.07227	478.31291	749.04297	1410.22141	464.69028	680.2549	1442.62772	77.14839	1289.13666	1470.76447	20.64301	1081.40167	1433.14377	-18.05627	970.65773	1497.0845	-21.31878	879.90005	1538.91418	49.62108	794.99069	1657.79846	-24.59732	783.58727	1661.88522	-9.68617	765.88623	1704.95148	355.95936	883.05962	1566.3765	88.94815	887.32727	1549.99603	311.41241	946.40358	1390.03082	149.46107	966.53694	1381.33667	358.98193	578.53321	1512.84286	349.28982	455.66238	1616.19812	297.05456	281.69691	1703.22952	322.66396	115.02942	1692.10495	260.65676	52.8406	1657.68051	305.88425	73.18413	1841.45157	104.72034	627.26337	1358.07983	113.28068	443.03909	1429.94705	141.55084	281.41949	1344.33777	149.59777	136.6909	1200.44762	207.58686	123.90633	1120.79552	168.71332	41.41447	1286.21368
150	4.977	321.26732	1548.61786	1561.87439	152.1277	1530.22339	1589.59351	332.58049	1517.0433	1439.91592	116.28707	1512.50259	1495.46982	313.30772	1274.87183	1552.80045	176.41014	1271.5303	1556.5123	308.86768	1312.99118	1424.91989	157.79553	1312.63565	1437.11014	237.90972	1142.17865	1380.72479	246.76075	1225.4657	1607.83035	247.97606	1134.83063	1666.69952	409.6891	1284.77859	1490.24658	446.17573	1055.59334	1428.07373	461.07738	970.30228	1441.84494	448.09505	904.51942	1409.97437	416.49857	742.94594	1466.96274	485.36373	747.84683	1447.87216	472.50782	677.99278	1478.72787	81.37594	1288.38943	1509.43054	26.23538	1081.51329	1467.09396	-12.25971	968.73344	1528.24799	-15.57352	876.57211	1566.45721	54.17982	787.45262	1682.61169	-20.01552	775.70648	1685.625	-5.214	756.26434	1728.1073	359.30794	885.68901	1609.41147	93.22762	886.0376	1593.98788	316.95967	950.09605	1433.95905	150.833	965.3331	1424.13055	364.12495	582.98748	1542.54044	355.22388	454.83627	1639.09195	298.913	280.94555	1725.42419	323.29121	116.00379	1712.10098	261.35887	57.1587	1670.76614	301.62115	54.82342	1861.5538	107.56437	625.58167	1401.59821	111.21304	440.77816	1473.75458	137.44204	283.82952	1375.83252	145.80592	153.69514	1218.50014	203.42417	149.44338	1139.20227	167.41482	40.0976	1290.05814
151	5.01	323.90495	1554.32465	1600.04944	154.78908	1534.45282	1626.78757	336.14143	1523.77792	1477.96707	119.53332	1517.14996	1532.42706	316.46427	1279.04503	1590.99457	179.8435	1278.1089	1594.00391	313.39035	1317.00714	1464.56177	161.30634	1317.31445	1475.88776	240.73284	1145.60867	1420.59464	249.80064	1231.21948	1646.76453	249.97145	1142.24144	1707.78992	412.88773	1287.65732	1529.08356	450.82874	1055.88989	1472.35458	465.55496	971.31897	1488.21533	453.92796	906.53442	1455.92865	423.40721	743.67661	1508.60443	493.44528	750.07919	1491.31653	480.85285	679.05792	1519.88251	84.07255	1293.37021	1546.51001	33.21498	1086.39198	1499.1568	-4.49944	971.80374	1557.36221	-8.515	878.3522	1589.68185	58.06112	781.51215	1701.45889	-16.18853	769.95613	1702.03949	-2.64822	748.06099	1743.50174	363.23189	894.30908	1650.01785	98.62777	889.00925	1636.57928	319.92279	961.57341	1476.98059	152.71452	969.94293	1466.60614	371.56685	589.85329	1576.29547	360.1556	459.11915	1671.42426	301.13077	279.03606	1744.28802	324.26231	115.09686	1719.15131	263.77613	59.81035	1675.50201	295.39413	43.48332	1865.42999	111.61114	624.12067	1452.11945	108.39743	440.53627	1531.46545	131.12219	289.49884	1421.09772	142.20247	176.26064	1250.90515	201.14347	181.86018	1175.08743	167.98828	36.82267	1298.8382
152	5.043	326.84746	1559.69299	1637.87506	157.37943	1539.25339	1663.7323	339.42268	1529.86191	1515.60165	122.61478	1522.42111	1569.11957	318.55778	1285.44174	1628.06381	182.13614	1284.77936	1631.22498	315.36522	1320.6636	1501.05026	164.78315	1323.10883	1512.63687	243.41892	1150.13092	1458.24417	251.56237	1239.91272	1684.52972	250.94912	1151.37337	1746.5361	415.40661	1293.08334	1566.09558	454.11125	1059.54697	1517.72522	468.96641	976.58913	1535.89691	458.52299	911.65031	1504.34387	431.26545	748.52654	1557.58026	501.54926	756.98944	1541.28647	489.15016	684.26544	1568.42209	86.70181	1301.46713	1582.28714	39.62868	1096.38435	1530.64911	3.77935	979.18175	1584.05899	-0.55864	884.31168	1609.25629	61.09922	778.98628	1715.91232	-13.47033	767.57896	1712.31308	-1.02187	742.27905	1752.90726	369.76086	901.99043	1687.32651	106.14094	893.75587	1675.85648	321.3821	966.92055	1513.32138	157.07773	974.35806	1504.99619	377.6878	595.75413	1606.02524	364.0797	461.41357	1693.82904	301.44779	277.9664	1758.36243	323.1237	114.75944	1726.3855	263.61977	61.85158	1677.38113	284.63259	41.00246	1869.17862	112.71625	619.22348	1505.05417	106.02699	439.9218	1598.90335	126.59118	296.12888	1479.47968	138.872	200.38509	1299.19235	199.42343	214.78134	1229.56627	166.9602	40.91047	1316.58875
